# DH2 BRES: local geometry only; no scene transforms, skinning or textures
o _mesh_candle_big-mesh_0
usemtl Material__12
v 52.3913002 56.2131996 273.042999
v 90.5403976 101.677002 273.042999
v 77.8343964 111.633003 342.570007
v 39.2248001 66.4339981 342.570007
vt 0.19043 0.779296994
vt 0.207030997 0.779296994
vt 0.207030997 0.752929986
vt 0.19043 0.752929986
vn 0.743238986 -0.628588974 0.229065999
vn 0.746218026 -0.626152992 0.226034001
vn 0.742446005 -0.629233003 0.229868993
vn 0.739450991 -0.631645024 0.232887998
f 1/1/1 2/2/2 3/3/3
f 3/3/3 4/4/4 1/1/1
o _mesh_halo_nobatch-mesh_0
usemtl Standard_14
v -150.315994 -121.707001 115.464996
v 149.529999 -122.375 115.464996
v 150.315994 121.707001 115.464996
v -149.529999 122.375 115.464996
vt 0.180664003 0.869140983
vt 0.180664003 0.819335997
vt 0.130859002 0.819335997
vt 0.130859002 0.869140983
vn 0 0 1
vn 0 0 1
vn 0 0 1
vn 0 0 1
f 5/5/5 6/6/6 7/7/7
f 7/7/7 8/8/8 5/5/5
